<svg width="86" height="86" viewBox="0 0 86 86" fill="none" xmlns="http://www.w3.org/2000/svg">
<circle cx="43" cy="43" r="43" fill="#357A75"/>
<path d="M55.7059 31.1111H51.9926V29.3333C51.9926 27.9188 51.4058 26.5623 50.3612 25.5621C49.3167 24.5619 47.9 24 46.4228 24H38.9963C37.5191 24 36.1024 24.5619 35.0578 25.5621C34.0133 26.5623 33.4265 27.9188 33.4265 29.3333V31.1111H29.7132C28.7293 31.1139 27.7866 31.4894 27.0908 32.1556C26.3951 32.8218 26.0029 33.7245 26 34.6667V52.4444C26.0029 53.3866 26.3951 54.2893 27.0908 54.9555C27.7866 55.6217 28.7293 55.9972 29.7132 56H55.7059C56.6898 55.9972 57.6325 55.6217 58.3283 54.9555C59.024 54.2893 59.4161 53.3866 59.4191 52.4444V34.6667C59.4161 33.7245 59.024 32.8218 58.3283 32.1556C57.6325 31.4894 56.6898 31.1139 55.7059 31.1111V31.1111ZM37.1397 29.3333C37.1397 28.8618 37.3353 28.4097 37.6835 28.0763C38.0317 27.7429 38.5039 27.5556 38.9963 27.5556H46.4228C46.9152 27.5556 47.3874 27.7429 47.7356 28.0763C48.0838 28.4097 48.2794 28.8618 48.2794 29.3333V31.1111H37.1397V29.3333ZM48.2794 45.3333H44.5662V48.8889H40.8529V45.3333H37.1397V41.7778H40.8529V38.2222H44.5662V41.7778H48.2794V45.3333Z" fill="white"/>
</svg>
