<svg width="86" height="86" viewBox="0 0 86 86" fill="none" xmlns="http://www.w3.org/2000/svg">
<circle cx="43" cy="43" r="43" fill="#357A75"/>
<path fill-rule="evenodd" clip-rule="evenodd" d="M34.9361 58.9992C34.19 58.9992 33.4494 58.7744 32.8154 58.3316C31.7207 57.5636 31.1842 56.2957 31.4172 55.0192L32.6745 48.0832C32.7214 47.8254 32.6293 47.5643 32.4306 47.3809L27.0909 42.4686C26.1082 41.5674 25.756 40.2356 26.1715 38.9988C26.5905 37.7483 27.6997 36.854 29.0671 36.6672L36.4516 35.6484C36.737 35.6104 36.9827 35.4426 37.1055 35.2039L40.4058 28.8871C41.0146 27.723 42.2429 27 43.6122 27C44.9814 27 46.2098 27.723 46.8185 28.8871L50.1206 35.2022C50.2452 35.4426 50.4891 35.6104 50.7727 35.6484L58.1572 36.6672C59.5247 36.854 60.6338 37.7483 61.0529 38.9988C61.4684 40.2356 61.1143 41.5674 60.1316 42.4686L54.7919 47.3809C54.5932 47.5643 54.5029 47.8254 54.5499 48.0814L55.8089 55.0192C56.0402 56.2974 55.5037 57.5653 54.4072 58.3316C53.2962 59.1117 51.8493 59.2172 50.6228 58.6048L44.024 55.3306C43.7657 55.2026 43.4568 55.2026 43.1985 55.3306L36.5998 58.6066C36.0723 58.8695 35.5033 58.9992 34.9361 58.9992Z" fill="white"/>
</svg>
