<svg width="86" height="86" viewBox="0 0 86 86" fill="none" xmlns="http://www.w3.org/2000/svg">
<circle cx="43" cy="43" r="43" fill="#357A75"/>
<path d="M41.1917 46.4537C48.3448 46.4537 54.3835 47.5807 54.3835 51.9334C54.3835 56.286 48.3061 57.3755 41.1917 57.3755C34.0387 57.3755 28 56.2468 28 51.8958C28 47.5432 34.0756 46.4537 41.1917 46.4537ZM57.8995 33.7965C58.7723 33.7965 59.4807 34.4861 59.4807 35.3319V37.3129H61.5968C62.4678 37.3129 63.178 38.0025 63.178 38.8483C63.178 39.6941 62.4678 40.3836 61.5968 40.3836H59.4807V42.3665C59.4807 43.2122 58.7723 43.9018 57.8995 43.9018C57.0285 43.9018 56.3183 43.2122 56.3183 42.3665V40.3836H54.2058C53.333 40.3836 52.6246 39.6941 52.6246 38.8483C52.6246 38.0025 53.333 37.3129 54.2058 37.3129H56.3183V35.3319C56.3183 34.4861 57.0285 33.7965 57.8995 33.7965ZM41.1917 25.3755C46.0368 25.3755 49.9205 29.1424 49.9205 33.8417C49.9205 38.5411 46.0368 42.308 41.1917 42.308C36.3467 42.308 32.463 38.5411 32.463 33.8417C32.463 29.1424 36.3467 25.3755 41.1917 25.3755Z" fill="white"/>
</svg>
