<svg width="86" height="86" viewBox="0 0 86 86" fill="none" xmlns="http://www.w3.org/2000/svg">
<circle cx="43" cy="43" r="43" fill="#357A75"/>
<path d="M42.8482 33C46.7234 33 49.429 35.1309 49.429 38.1846V46.9661C49.429 50.0199 46.7234 52.1507 42.8482 52.1507H33.5809C29.7056 52.1507 27 50.0199 27 46.9661V38.1846C27 35.1309 29.7056 33 33.5809 33H42.8482ZM55.7328 36.0373C56.4352 35.7521 57.2592 35.7819 57.9296 36.1189C58.6 36.4546 59 37.0379 59 37.6756V47.4759C59 48.1149 58.6 48.6969 57.9296 49.0326C57.5632 49.2153 57.1536 49.3086 56.7408 49.3086C56.3968 49.3086 56.0528 49.2438 55.7312 49.1129L53.3615 48.159C52.4847 47.8038 51.9407 47.0909 51.9407 46.299V38.8512C51.9407 38.058 52.4847 37.3451 53.3615 36.9926L55.7328 36.0373Z" fill="white"/>
</svg>
